<?xml version="1.0" encoding="UTF-8"?><svg id="a" xmlns="http://www.w3.org/2000/svg" viewBox="0 0 878.4 32.1"><defs><style>.b{letter-spacing:0em;}.c{letter-spacing:0em;}.d{letter-spacing:0em;}.e{letter-spacing:0em;}.f{letter-spacing:0em;}.g{letter-spacing:0em;}.h{letter-spacing:0em;}.i{letter-spacing:0em;}.j{fill:#aa4893;}.k{fill:#439b56;}.l{fill:#459ea0;}.m{fill:#9b4558;}.n{fill:#4d6ab2;}.o{letter-spacing:0em;}.p{letter-spacing:0em;}.q{fill:#231f20;}.q,.r,.s{font-family:AcuminProCond-Bold, Acumin Pro Condensed;font-size:15px;}.r{fill:#fff;}.t{fill:#dbdbdb;stroke:#dbdbdb;stroke-width:4px;}.t,.u,.v,.w{stroke-miterlimit:10;}.x{letter-spacing:0em;}.y{letter-spacing:0em;}.a`{letter-spacing:0em;}.aa{letter-spacing:0em;}.ab{letter-spacing:0em;}.ac{letter-spacing:0em;}.ad{letter-spacing:0em;}.u,.v,.w{fill:none;stroke:#808285;stroke-width:2px;}.ae{letter-spacing:0em;}.v{stroke-dasharray:0 0 2.8 2.8;}.af{letter-spacing:0em;}.ag{letter-spacing:0em;}.ah{letter-spacing:0em;}.ai{letter-spacing:0em;}.aj{letter-spacing:0em;}.w{stroke-dasharray:0 0 3 3;}.ak{letter-spacing:0em;}.al{letter-spacing:0em;}.am{letter-spacing:0em;}.an{letter-spacing:0em;}.ao{letter-spacing:0em;}</style></defs><text class="s" transform="translate(6.4 20.1)"><tspan class="p" x="0" y="0">T</tspan><tspan class="ak" x="5.8" y="0">y</tspan><tspan class="i" x="12.1" y="0">p</tspan><tspan class="am" x="19.2" y="0">e</tspan><tspan x="25.8" y="0">s </tspan><tspan class="o" x="34.6" y="0">o</tspan><tspan x="41.4" y="0">f Mil</tspan><tspan class="ao" x="64.4" y="0">e</tspan><tspan class="g" x="71.1" y="0">s</tspan><tspan class="ad" x="77.2" y="0">tone:</tspan></text><rect class="j" x="216.6" y="5.6" width="92.8" height="22.6"/><text class="r" transform="translate(228.6 22.2)"><tspan class="af" x="0" y="0">SU</tspan><tspan class="a`" x="14.7" y="0">B</tspan><tspan x="22.1" y="0">M</tspan><tspan class="c" x="31.8" y="0">I</tspan><tspan class="e" x="35.4" y="0">S</tspan><tspan class="c" x="42.5" y="0">S</tspan><tspan class="aj" x="49.4" y="0">ION</tspan></text><rect class="n" x="316.6" y="5.6" width="92.8" height="22.6"/><text class="r" transform="translate(338.7 22.2)"><tspan x="0" y="0">M</tspan><tspan class="c" x="9.7" y="0">E</tspan><tspan class="y" x="16.3" y="0">E</tspan><tspan class="ai" x="23.2" y="0">T</tspan><tspan class="aj" x="29.5" y="0">ING</tspan></text><rect class="k" x="511.3" y="5.6" width="92.8" height="22.6"/><text class="r" transform="translate(536.4 22.2)"><tspan x="0" y="0">R</tspan><tspan class="c" x="7.4" y="0">E</tspan><tspan class="aa" x="13.9" y="0">P</tspan><tspan class="aj" x="21.2" y="0">O</tspan><tspan class="g" x="28.9" y="0">R</tspan><tspan x="36.4" y="0">T</tspan></text><text class="q" transform="translate(619.7 22.2)"><tspan x="0" y="0">NO </tspan><tspan class="d" x="18.5" y="0">SP</tspan><tspan class="b" x="32.6" y="0">E</tspan><tspan class="ag" x="39.2" y="0">C</tspan><tspan x="46.3" y="0">I</tspan><tspan class="d" x="49.9" y="0">F</tspan><tspan x="56.3" y="0">I</tspan><tspan class="c" x="59.9" y="0">E</tspan><tspan x="66.4" y="0">D </tspan><tspan class="an" x="76.9" y="0">D</tspan><tspan class="ab" x="84.5" y="0">A</tspan><tspan class="ai" x="90.9" y="0">T</tspan><tspan x="97.3" y="0">E</tspan></text><rect class="t" x="741.6" y="5.6" width="132.6" height="22.6"/><g><polyline class="u" points="731.1 26.7 731.1 28.2 729.6 28.2"/><line class="w" x1="726.6" y1="28.2" x2="615.3" y2="28.2"/><polyline class="u" points="613.8 28.2 612.3 28.2 612.3 26.7"/><line class="v" x1="612.3" y1="23.9" x2="612.3" y2="8.5"/><polyline class="u" points="612.3 7.1 612.3 5.6 613.8 5.6"/><line class="w" x1="616.8" y1="5.6" x2="728.1" y2="5.6"/><polyline class="u" points="729.6 5.6 731.1 5.6 731.1 7.1"/><line class="v" x1="731.1" y1="9.9" x2="731.1" y2="25.3"/></g><text class="q" transform="translate(749.2 22.2)"><tspan x="0" y="0">LINK</tspan><tspan class="d" x="25.1" y="0">E</tspan><tspan x="31.7" y="0">D </tspan><tspan class="ae" x="42.1" y="0">T</tspan><tspan class="aj" x="48.3" y="0">O K</tspan><tspan class="x" x="66" y="0">E</tspan><tspan x="72.9" y="0">Y </tspan><tspan class="f" x="82.5" y="0">E</tspan><tspan class="aj" x="89.3" y="0">V</tspan><tspan class="c" x="96.5" y="0">E</tspan><tspan class="aj" x="103.1" y="0">NT</tspan></text><rect class="l" x="414.1" y="5.6" width="92.8" height="22.6"/><text class="r" transform="translate(421.7 22.2)"><tspan x="0" y="0">D</tspan><tspan class="c" x="7.7" y="0">E</tspan><tspan x="14.2" y="0">LI</tspan><tspan class="h" x="24.1" y="0">B</tspan><tspan class="d" x="31.4" y="0">E</tspan><tspan class="ac" x="38" y="0">R</tspan><tspan class="ab" x="45.5" y="0">A</tspan><tspan class="ai" x="51.9" y="0">T</tspan><tspan class="aj" x="58.3" y="0">ION</tspan></text><rect class="m" x="117.1" y="5.6" width="92.8" height="22.6"/><text class="r" transform="translate(136.5 22.2)"><tspan x="0" y="0">D</tspan><tspan class="ah" x="7.7" y="0">E</tspan><tspan class="al" x="14.6" y="0">A</tspan><tspan x="21.8" y="0">DLINE</tspan></text></svg>