<?xml version="1.0" encoding="utf-8"?>
<!-- Generator: Adobe Illustrator 26.3.1, SVG Export Plug-In . SVG Version: 6.00 Build 0)  -->
<svg version="1.1" id="a" xmlns="http://www.w3.org/2000/svg" xmlns:xlink="http://www.w3.org/1999/xlink" x="0px" y="0px"
	 viewBox="0 0 878.4 32.1" style="enable-background:new 0 0 878.4 32.1;" xml:space="preserve">
<style type="text/css">
	.st0{font-family: inhereit;}
	.st1{font-size:15px;}
	.st2{fill:#AA4893;}
	.st3{fill:#FFFFFF;}
	.st4{fill:#4D6AB2;}
	.st5{fill:#439B56;}
	.st6{fill:#231F20;}
	.st7{fill:none;stroke:#DBDBDB;stroke-width:4;stroke-miterlimit:10;}
	.st8{fill:none;stroke:#808285;stroke-width:2;stroke-miterlimit:10;}
	.st9{fill:none;stroke:#808285;stroke-width:2;stroke-miterlimit:10;stroke-dasharray:0,0,3,3;}
	.st10{fill:none;stroke:#808285;stroke-width:2;stroke-miterlimit:10;stroke-dasharray:0,0,2.8,2.8;}
	.st11{fill:#459EA0;}
	.st12{fill:#9B4558;}
</style>
<text transform="matrix(1 0 0 1 6.4 20.1)" class="st0 st1">T</text>
<text transform="matrix(1 0 0 1 12.2 20.1)" class="st0 st1">y</text>
<text transform="matrix(1 0 0 1 18.5 20.1)" class="st0 st1">p</text>
<text transform="matrix(1 0 0 1 25.6 20.1)" class="st0 st1">e</text>
<text transform="matrix(1 0 0 1 32.2 20.1)" class="st0 st1">s </text>
<text transform="matrix(1 0 0 1 41 20.1)" class="st0 st1">o</text>
<text transform="matrix(1 0 0 1 47.8 20.1)" class="st0 st1">f Mil</text>
<text transform="matrix(1 0 0 1 70.8 20.1)" class="st0 st1">e</text>
<text transform="matrix(1 0 0 1 77.5 20.1)" class="st0 st1">s</text>
<text transform="matrix(1 0 0 1 83.6 20.1)" class="st0 st1">tone:</text>
<rect x="216.6" y="5.6" class="st2" width="92.8" height="22.6"/>
<text transform="matrix(1 0 0 1 228.6 22.2)" class="st3 st0 st1">SU</text>
<text transform="matrix(1 0 0 1 243.3 22.2)" class="st3 st0 st1">B</text>
<text transform="matrix(1 0 0 1 250.7 22.2)" class="st3 st0 st1">M</text>
<text transform="matrix(1 0 0 1 260.4 22.2)" class="st3 st0 st1">I</text>
<text transform="matrix(1 0 0 1 264 22.2)" class="st3 st0 st1">S</text>
<text transform="matrix(1 0 0 1 271.1 22.2)" class="st3 st0 st1">S</text>
<text transform="matrix(1 0 0 1 278 22.2)" class="st3 st0 st1">ION</text>
<rect x="316.6" y="5.6" class="st4" width="92.8" height="22.6"/>
<text transform="matrix(1 0 0 1 338.7 22.2)" class="st3 st0 st1">M</text>
<text transform="matrix(1 0 0 1 348.4 22.2)" class="st3 st0 st1">E</text>
<text transform="matrix(1 0 0 1 355 22.2)" class="st3 st0 st1">E</text>
<text transform="matrix(1 0 0 1 361.9 22.2)" class="st3 st0 st1">T</text>
<text transform="matrix(1 0 0 1 368.2 22.2)" class="st3 st0 st1">ING</text>
<rect x="511.3" y="5.6" class="st5" width="92.8" height="22.6"/>
<text transform="matrix(1 0 0 1 536.4 22.2)" class="st3 st0 st1">R</text>
<text transform="matrix(1 0 0 1 543.8 22.2)" class="st3 st0 st1">E</text>
<text transform="matrix(1 0 0 1 550.3 22.2)" class="st3 st0 st1">P</text>
<text transform="matrix(1 0 0 1 557.6 22.2)" class="st3 st0 st1">O</text>
<text transform="matrix(1 0 0 1 565.3 22.2)" class="st3 st0 st1">R</text>
<text transform="matrix(1 0 0 1 572.8 22.2)" class="st3 st0 st1">T</text>
<text transform="matrix(1 0 0 1 619.7 22.2)" class="st6 st0 st1">NO </text>
<text transform="matrix(1 0 0 1 638.2 22.2)" class="st6 st0 st1">SP</text>
<text transform="matrix(1 0 0 1 652.3 22.2)" class="st6 st0 st1">E</text>
<text transform="matrix(1 0 0 1 658.9 22.2)" class="st6 st0 st1">C</text>
<text transform="matrix(1 0 0 1 666 22.2)" class="st6 st0 st1">I</text>
<text transform="matrix(1 0 0 1 669.6 22.2)" class="st6 st0 st1">F</text>
<text transform="matrix(1 0 0 1 676 22.2)" class="st6 st0 st1">I</text>
<text transform="matrix(1 0 0 1 679.6 22.2)" class="st6 st0 st1">E</text>
<text transform="matrix(1 0 0 1 686.1 22.2)" class="st6 st0 st1">D </text>
<text transform="matrix(1 0 0 1 696.6 22.2)" class="st6 st0 st1">D</text>
<text transform="matrix(1 0 0 1 704.2 22.2)" class="st6 st0 st1">A</text>
<text transform="matrix(1 0 0 1 710.6 22.2)" class="st6 st0 st1">T</text>
<text transform="matrix(1 0 0 1 717 22.2)" class="st6 st0 st1">E</text>
<rect x="741.6" y="5.6" class="st7" width="132.6" height="22.6"/>
<g>
	<polyline class="st8" points="731.1,26.7 731.1,28.2 729.6,28.2 	"/>
	<line class="st9" x1="726.6" y1="28.2" x2="615.3" y2="28.2"/>
	<polyline class="st8" points="613.8,28.2 612.3,28.2 612.3,26.7 	"/>
	<line class="st10" x1="612.3" y1="23.9" x2="612.3" y2="8.5"/>
	<polyline class="st8" points="612.3,7.1 612.3,5.6 613.8,5.6 	"/>
	<line class="st9" x1="616.8" y1="5.6" x2="728.1" y2="5.6"/>
	<polyline class="st8" points="729.6,5.6 731.1,5.6 731.1,7.1 	"/>
	<line class="st10" x1="731.1" y1="9.9" x2="731.1" y2="25.3"/>
</g>
<text transform="matrix(1 0 0 1 749.2 22.2)" class="st6 st0 st1">LINK</text>
<text transform="matrix(1 0 0 1 774.3 22.2)" class="st6 st0 st1">E</text>
<text transform="matrix(1 0 0 1 780.9 22.2)" class="st6 st0 st1">D </text>
<text transform="matrix(1 0 0 1 791.3 22.2)" class="st6 st0 st1">T</text>
<text transform="matrix(1 0 0 1 797.5 22.2)" class="st6 st0 st1">O K</text>
<text transform="matrix(1 0 0 1 815.2 22.2)" class="st6 st0 st1">E</text>
<text transform="matrix(1 0 0 1 822.1 22.2)" class="st6 st0 st1">Y </text>
<text transform="matrix(1 0 0 1 831.7 22.2)" class="st6 st0 st1">E</text>
<text transform="matrix(1 0 0 1 838.5 22.2)" class="st6 st0 st1">V</text>
<text transform="matrix(1 0 0 1 845.7 22.2)" class="st6 st0 st1">E</text>
<text transform="matrix(1 0 0 1 852.3 22.2)" class="st6 st0 st1">NT</text>
<rect x="414.1" y="5.6" class="st11" width="92.8" height="22.6"/>
<text transform="matrix(1 0 0 1 421.7 22.2)" class="st3 st0 st1">D</text>
<text transform="matrix(1 0 0 1 429.4 22.2)" class="st3 st0 st1">E</text>
<text transform="matrix(1 0 0 1 435.9 22.2)" class="st3 st0 st1">LI</text>
<text transform="matrix(1 0 0 1 445.8 22.2)" class="st3 st0 st1">B</text>
<text transform="matrix(1 0 0 1 453.1 22.2)" class="st3 st0 st1">E</text>
<text transform="matrix(1 0 0 1 459.7 22.2)" class="st3 st0 st1">R</text>
<text transform="matrix(1 0 0 1 467.2 22.2)" class="st3 st0 st1">A</text>
<text transform="matrix(1 0 0 1 473.6 22.2)" class="st3 st0 st1">T</text>
<text transform="matrix(1 0 0 1 480 22.2)" class="st3 st0 st1">ION</text>
<rect x="117.1" y="5.6" class="st12" width="92.8" height="22.6"/>
<text transform="matrix(1 0 0 1 136.5 22.2)" class="st3 st0 st1">D</text>
<text transform="matrix(1 0 0 1 144.2 22.2)" class="st3 st0 st1">E</text>
<text transform="matrix(1 0 0 1 151.1 22.2)" class="st3 st0 st1">A</text>
<text transform="matrix(1 0 0 1 158.3 22.2)" class="st3 st0 st1">DLINE</text>
</svg>
